<svg width="205" height="188" viewBox="0 0 205 188" fill="none" xmlns="http://www.w3.org/2000/svg">
<rect width="204.672" height="187.592" rx="50" fill="#313131"/>
<mask id="mask0_1_81" style="mask-type:alpha" maskUnits="userSpaceOnUse" x="15" y="52" width="49" height="83">
<rect x="15.905" y="52.5564" width="47.715" height="82.0954" fill="#D9D9D9"/>
</mask>
<g mask="url(#mask0_1_81)">
<path d="M60.6902 57.5564C83.082 57.5564 100.475 74.0969 100.475 93.6043C100.475 113.112 83.0819 129.652 60.6902 129.652C38.2985 129.652 20.9051 113.112 20.905 93.6043C20.905 74.0969 38.2984 57.5564 60.6902 57.5564Z" stroke="white" stroke-width="10"/>
</g>
<path d="M62.7828 76.7375C73.6165 76.7375 81.6401 84.69 81.6403 93.6037C81.6403 102.518 73.6166 110.471 62.7828 110.471C51.9491 110.471 43.9254 102.518 43.9254 93.6037C43.9256 84.69 51.9492 76.7376 62.7828 76.7375Z" stroke="white" stroke-width="10"/>
<path d="M116.776 76.7375C127.61 76.7375 135.633 84.69 135.634 93.6037C135.634 102.518 127.61 110.471 116.776 110.471C105.942 110.471 97.9187 102.518 97.9187 93.6037C97.9189 84.69 105.943 76.7376 116.776 76.7375Z" stroke="white" stroke-width="10"/>
<line x1="151.912" y1="52.5564" x2="151.912" y2="134.832" stroke="white" stroke-width="10"/>
<line y1="-5" x2="38.5722" y2="-5" transform="matrix(1 0 0 -1 146.912 127.142)" stroke="white" stroke-width="10"/>
</svg>
